<?xml version="1.0" encoding="utf-8"?>
<!-- Generator: Adobe Illustrator 28.4.1, SVG Export Plug-In . SVG Version: 6.00 Build 0)  -->
<svg version="1.1" id="Layer_1" xmlns="http://www.w3.org/2000/svg" xmlns:xlink="http://www.w3.org/1999/xlink" x="0px" y="0px"
	 viewBox="0 0 3451.8 792" style="enable-background:new 0 0 3451.8 792;" xml:space="preserve">
<style type="text/css">
	.st0{fill:none;}
	.st1{fill:#E31D2A;}
	.st2{fill:#209BCD;}
	.st3{fill-rule:evenodd;clip-rule:evenodd;fill:#E31D2A;}
	.st4{fill-rule:evenodd;clip-rule:evenodd;fill:#209BCD;}
</style>
<path class="st0" d="M739.2,90.9"/>
<g>
	<path class="st1" d="M1046.5,615.8l-21.2-80.5H885.6l-21.8,80.5H736.1l140.3-431.1h155l142.1,431.1H1046.5z M1001.2,440.2
		l-18.5-70.5c-4.3-15.7-9.6-35.9-15.7-60.8c-6.2-24.9-10.3-42.7-12.2-53.4c-1.8,10-5.2,26.4-10.4,49.3s-16.7,68-34.6,135.4H1001.2z"
		/>
	<path class="st1" d="M1586.3,615.8h-116.8V281.3h-82.1c-4.5,48.7-10.5,98.4-18.1,148.9s-14.8,85.9-21.6,106.3
		c-6.9,20.4-15.5,36.6-26,48.6s-23.5,21.1-39,27.3s-34.2,9.2-56.2,9.2c-16.7,0-31.9-2.2-45.6-6.5v-89.6c11.8,3.9,21.4,5.9,28.8,5.9
		c10.2,0,18-4.3,23.4-12.8s10.3-23,14.9-43.5c4.5-20.5,10.8-58.4,18.8-113.9s15.5-113.8,22.4-174.9h297.1L1586.3,615.8L1586.3,615.8
		z"/>
	<path class="st1" d="M1679.3,186.5h103.6v184.4c0,19.6-1.6,58.7-4.7,117.5h2.4L1952,186.5h143.6v429.3h-103V436.1
		c0-27.2,1.8-67.9,5.3-122.2h-2.4l-173,301.9h-143.3L1679.3,186.5L1679.3,186.5z"/>
	<path class="st2" d="M2375.9,615.8l-88-309.2h-2.6c4.1,52.7,6.2,93.6,6.2,122.8v186.5h-103V186.5h154.7l89.7,304.8h2.4l88-304.8
		h155v429.3h-106.8V427.6c0-9.8,0.1-20.7,0.4-32.6c0.3-11.9,1.6-41.2,4-87.8h-2.6l-86.8,308.6L2375.9,615.8L2375.9,615.8z"/>
	<path class="st2" d="M3026.3,615.8H2771V186.5h255.4v93.1h-139.1v67.5H3016v93.1h-128.9v81.1h139.1L3026.3,615.8L3026.3,615.8z"/>
	<path class="st2" d="M3291.4,615.8h-116.2V281.3h-105v-94.9h326v94.9h-104.7v334.5H3291.4z"/>
</g>
<path class="st3" d="M319.4,430.4c-9.5-14.4-20-29.4-29.6-43.9L275,364.6c-2-2.8-0.9-3.2,0.3-6.7l35.4-101.8c1-2.8,8.4-25.1,9.6-27
	L358.2,338c1.6,4.7,3.2,9.3,4.8,13.8c3.8,10.5,3.7,8.8,0.8,13L327,419.6C325.8,421.4,320.6,429.6,319.4,430.4L319.4,430.4z
	 M247.9,324.5c-0.5,1.9-5.4,16.6-6.2,17.6l-0.9,3.1c-0.8,2.7-2.1,5.9-3.1,8.9c-0.8,2.2-2,6.5-3.1,8.8l-72.4,207.9
	c-2.4,0-8.5-0.3-10.5,0.2v11.6l59,0.1l0.1-11.9h-9.6l29.5-85c1.2-3.4,28.2-81.9,29.7-85.1c1.2,1.3,2.7,3.6,3.7,5.2l55.2,80
	c1.2-0.9,12.9-18.5,15-21.3l37.4-54.2c1.2-1.7,2.5-3.6,3.7-5.3l3.3-4.7c0.7-0.7,0-0.2,0.9-0.7l59.6,171.2l-11,0.1v11.8l59,0.1
	l0.1-11.9h-9c-1.1-1.7-59-169-64-183.2l-6.8-19.5c-0.7-1.9-2-5.1-2.2-7c-1.2-1.5-2-5.7-3.1-8.4c-0.6-1.5-2.7-7-2.9-8.7l-1.2-3.1
	c-0.9-2.8-2.1-5.9-3-8.6c-0.8-2.2-2.8-7.3-3-9.1L344,185.5h-47.5C291.5,198.5,249.2,322.4,247.9,324.5z"/>
<path class="st4" d="M53,604.7v10.2h64.5l0.2-10.3h-15.8L200,312.5l34.7,50.2c1.2-2.2,2.3-6.5,3.1-8.8c1-2.9,2.3-6.2,3.1-8.9
	l-37.6-55.3l-10-0.7c-3.7,11.9-9.2,27.1-13.3,39.4c-4.4,13.1-8.9,26.4-13.4,39.6l-53.4,157.8c-1.3,3.8-25.7,77.1-26.9,78.7H83
	l112.5-329.6c1,0.7,2.1,2.7,3.1,4c8.3,11.6,17.6,25.7,25.8,37.8l14.4,20.9c0.9,1.3,1.9,3.1,2.9,4.2c0.8-1,5.6-15.7,6.2-17.6
	c-1.8-3-4.1-6.1-6-9c-9.8-14.5-20.4-29.8-29.8-44.2c-3.9-6-8.2-11.7-11.9-17.7l-12.9-1c-2.4,7.5-5,14.7-7.5,22.2l-22.3,66
	c-9.7,29.5-19.9,58.7-29.7,87.9l-52,154.2c-1.1,3.2-6.5,20.3-7.5,21.8L53,604.7z"/>
<path class="st4" d="M392.1,323.1c0.2,1.8,2.2,6.8,3,9.1c1,2.7,2.1,5.8,3,8.6c1.3-1.2,31.3-45.6,34.1-49.5c1.9-2.8,3.8-5.4,5.7-8.3
	c1.3-1.9,4.2-6.6,5.7-8l112.5,329.7h-3.5c-1-4.4-25.3-74.9-26.6-78.9c-3.4-10.1-79.3-235.3-80.2-236.6l-9.7,0.8l-18.4,26.9
	c-5.4,8.3-13.8,19.5-18.3,27.1c0.2,1.8,2.3,7.2,2.9,8.7c1.1,2.6,1.9,6.9,3.1,8.4c1.3-1.1,6.9-9.7,8.4-11.8l16.7-24.2
	c2-2.7,6.9-10.6,8.5-12.2l1,2.1c0.3,0.8,0.4,1.4,0.7,2.2c0.5,1.5,1,2.9,1.5,4.5l92,273.7c0.9,2.7,2.5,6.6,3,9.3h-15.9
	c-0.2,2.3-0.3,7.9,0.1,10.1h64.3v-10.1h-15.2l-118.8-352l-12.8,0.9L392.1,323.1z"/>
</svg>
